<mxfile host="app.diagrams.net" modified="2022-10-24T09:01:28.694Z" agent="5.0 (Windows NT 10.0; Win64; x64) AppleWebKit/537.36 (KHTML, like Gecko) Chrome/106.0.0.0 Safari/537.36 Edg/106.0.1370.52" etag="aIxe2TjnkmoRwMapgpwR" version="20.5.1" type="github">
  <diagram id="dumCxxVGTvkt2iQniaj8" name="第 1 页">
    <mxGraphModel dx="1223" dy="735" grid="1" gridSize="10" guides="1" tooltips="1" connect="1" arrows="1" fold="1" page="1" pageScale="1" pageWidth="827" pageHeight="1169" math="0" shadow="0">
      <root>
        <mxCell id="0" />
        <mxCell id="1" parent="0" />
        <mxCell id="km2fHNfgsr3sb5lxzN4H-50" value="&lt;b&gt;Given input array = [4, 2,3,0,3,1,2], Start index = 5&lt;/b&gt;" style="text;html=1;strokeColor=none;fillColor=none;align=left;verticalAlign=middle;whiteSpace=wrap;rounded=0;fontSize=14;" vertex="1" parent="1">
          <mxGeometry x="360" y="70" width="550" height="30" as="geometry" />
        </mxCell>
        <mxCell id="km2fHNfgsr3sb5lxzN4H-51" value="" style="group;fillColor=#dae8fc;strokeColor=#6c8ebf;container=0;" vertex="1" connectable="0" parent="1">
          <mxGeometry x="370" y="790" width="120" height="120" as="geometry" />
        </mxCell>
        <mxCell id="km2fHNfgsr3sb5lxzN4H-52" value="" style="group" vertex="1" connectable="0" parent="1">
          <mxGeometry x="250" y="1095" width="120" height="120" as="geometry" />
        </mxCell>
        <mxCell id="km2fHNfgsr3sb5lxzN4H-53" value="&lt;b&gt;&lt;font style=&quot;font-size: 14px;&quot;&gt;ID: 3&lt;/font&gt;&lt;/b&gt;" style="rounded=0;whiteSpace=wrap;html=1;fillColor=#dae8fc;strokeColor=#6c8ebf;" vertex="1" parent="km2fHNfgsr3sb5lxzN4H-52">
          <mxGeometry width="120" height="60" as="geometry" />
        </mxCell>
        <mxCell id="km2fHNfgsr3sb5lxzN4H-54" value="&lt;font style=&quot;font-size: 14px;&quot;&gt;&lt;b&gt;Val: 0&lt;br&gt;&lt;/b&gt;&lt;/font&gt;" style="rounded=0;whiteSpace=wrap;html=1;" vertex="1" parent="km2fHNfgsr3sb5lxzN4H-52">
          <mxGeometry y="60" width="120" height="60" as="geometry" />
        </mxCell>
        <mxCell id="km2fHNfgsr3sb5lxzN4H-55" value="" style="group;fillColor=#dae8fc;strokeColor=#6c8ebf;container=0;" vertex="1" connectable="0" parent="1">
          <mxGeometry x="530" y="1095" width="120" height="120" as="geometry" />
        </mxCell>
        <mxCell id="km2fHNfgsr3sb5lxzN4H-56" value="" style="group;fillColor=#dae8fc;strokeColor=#6c8ebf;" vertex="1" connectable="0" parent="1">
          <mxGeometry x="1090" y="1095" width="120" height="120" as="geometry" />
        </mxCell>
        <mxCell id="km2fHNfgsr3sb5lxzN4H-57" value="&lt;b&gt;&lt;font style=&quot;font-size: 14px;&quot;&gt;ID: 6&lt;/font&gt;&lt;/b&gt;" style="rounded=0;whiteSpace=wrap;html=1;fillColor=#dae8fc;strokeColor=#6c8ebf;" vertex="1" parent="km2fHNfgsr3sb5lxzN4H-56">
          <mxGeometry width="120" height="60" as="geometry" />
        </mxCell>
        <mxCell id="km2fHNfgsr3sb5lxzN4H-58" value="&lt;font style=&quot;font-size: 14px;&quot;&gt;&lt;b&gt;Val: 2&lt;/b&gt;&lt;/font&gt;" style="rounded=0;whiteSpace=wrap;html=1;" vertex="1" parent="km2fHNfgsr3sb5lxzN4H-56">
          <mxGeometry y="60" width="120" height="60" as="geometry" />
        </mxCell>
        <mxCell id="km2fHNfgsr3sb5lxzN4H-59" value="" style="endArrow=classic;html=1;rounded=0;fontSize=14;exitX=1;exitY=1;exitDx=0;exitDy=0;entryX=0.5;entryY=0;entryDx=0;entryDy=0;strokeWidth=4;" edge="1" parent="1" source="km2fHNfgsr3sb5lxzN4H-67" target="km2fHNfgsr3sb5lxzN4H-72">
          <mxGeometry width="50" height="50" relative="1" as="geometry">
            <mxPoint x="840" y="990" as="sourcePoint" />
            <mxPoint x="890" y="940" as="targetPoint" />
          </mxGeometry>
        </mxCell>
        <mxCell id="km2fHNfgsr3sb5lxzN4H-60" value="" style="endArrow=classic;html=1;rounded=0;fontSize=14;exitX=0;exitY=1;exitDx=0;exitDy=0;strokeWidth=4;strokeColor=#00B800;" edge="1" parent="1" source="km2fHNfgsr3sb5lxzN4H-69">
          <mxGeometry width="50" height="50" relative="1" as="geometry">
            <mxPoint x="525" y="920.0000000000001" as="sourcePoint" />
            <mxPoint x="320" y="1090" as="targetPoint" />
          </mxGeometry>
        </mxCell>
        <mxCell id="km2fHNfgsr3sb5lxzN4H-61" value="" style="endArrow=classic;html=1;rounded=0;fontSize=14;exitX=0;exitY=1;exitDx=0;exitDy=0;strokeWidth=4;entryX=0.5;entryY=0;entryDx=0;entryDy=0;" edge="1" parent="1" target="km2fHNfgsr3sb5lxzN4H-74">
          <mxGeometry width="50" height="50" relative="1" as="geometry">
            <mxPoint x="930" y="910" as="sourcePoint" />
            <mxPoint x="600" y="1090" as="targetPoint" />
          </mxGeometry>
        </mxCell>
        <mxCell id="km2fHNfgsr3sb5lxzN4H-62" value="" style="endArrow=classic;html=1;rounded=0;fontSize=14;exitX=1;exitY=0;exitDx=0;exitDy=0;strokeWidth=4;entryX=0.5;entryY=1;entryDx=0;entryDy=0;strokeColor=#00B800;" edge="1" parent="1" source="km2fHNfgsr3sb5lxzN4H-72" target="km2fHNfgsr3sb5lxzN4H-69">
          <mxGeometry width="50" height="50" relative="1" as="geometry">
            <mxPoint x="910" y="650.0000000000001" as="sourcePoint" />
            <mxPoint x="850" y="835" as="targetPoint" />
          </mxGeometry>
        </mxCell>
        <mxCell id="km2fHNfgsr3sb5lxzN4H-63" value="" style="curved=1;endArrow=classic;html=1;rounded=0;strokeWidth=4;fontSize=14;exitX=0;exitY=1;exitDx=0;exitDy=0;entryX=0.5;entryY=1;entryDx=0;entryDy=0;" edge="1" parent="1" source="km2fHNfgsr3sb5lxzN4H-58" target="km2fHNfgsr3sb5lxzN4H-73">
          <mxGeometry width="50" height="50" relative="1" as="geometry">
            <mxPoint x="560" y="1650" as="sourcePoint" />
            <mxPoint x="510" y="1290" as="targetPoint" />
            <Array as="points">
              <mxPoint x="1010" y="1290" />
              <mxPoint x="710" y="1310" />
            </Array>
          </mxGeometry>
        </mxCell>
        <mxCell id="km2fHNfgsr3sb5lxzN4H-64" value="" style="endArrow=classic;html=1;rounded=0;fontSize=14;exitX=0;exitY=0.5;exitDx=0;exitDy=0;strokeWidth=4;strokeColor=#00B800;" edge="1" parent="1" source="km2fHNfgsr3sb5lxzN4H-74">
          <mxGeometry width="50" height="50" relative="1" as="geometry">
            <mxPoint x="720" y="1215" as="sourcePoint" />
            <mxPoint x="650" y="1125" as="targetPoint" />
          </mxGeometry>
        </mxCell>
        <mxCell id="km2fHNfgsr3sb5lxzN4H-65" value="" style="endArrow=classic;html=1;rounded=0;fontSize=14;exitX=1;exitY=0.5;exitDx=0;exitDy=0;strokeWidth=4;entryX=0;entryY=0.5;entryDx=0;entryDy=0;" edge="1" parent="1" source="km2fHNfgsr3sb5lxzN4H-74" target="km2fHNfgsr3sb5lxzN4H-57">
          <mxGeometry width="50" height="50" relative="1" as="geometry">
            <mxPoint x="1100" y="1040" as="sourcePoint" />
            <mxPoint x="940" y="1040" as="targetPoint" />
          </mxGeometry>
        </mxCell>
        <mxCell id="km2fHNfgsr3sb5lxzN4H-66" value="&lt;b&gt;&lt;font style=&quot;font-size: 14px;&quot;&gt;ID: 0&lt;/font&gt;&lt;/b&gt;" style="rounded=0;whiteSpace=wrap;html=1;fillColor=#dae8fc;strokeColor=#6c8ebf;" vertex="1" parent="1">
          <mxGeometry x="370" y="790" width="120" height="60" as="geometry" />
        </mxCell>
        <mxCell id="km2fHNfgsr3sb5lxzN4H-67" value="&lt;font style=&quot;font-size: 14px;&quot;&gt;&lt;b&gt;Val: 4&lt;/b&gt;&lt;/font&gt;" style="rounded=0;whiteSpace=wrap;html=1;" vertex="1" parent="1">
          <mxGeometry x="370" y="850" width="120" height="60" as="geometry" />
        </mxCell>
        <mxCell id="km2fHNfgsr3sb5lxzN4H-68" value="&lt;b&gt;&lt;font style=&quot;font-size: 14px;&quot;&gt;ID: 1&lt;/font&gt;&lt;/b&gt;" style="rounded=0;whiteSpace=wrap;html=1;fillColor=#dae8fc;strokeColor=#6c8ebf;" vertex="1" parent="1">
          <mxGeometry x="650" y="790" width="120" height="60" as="geometry" />
        </mxCell>
        <mxCell id="km2fHNfgsr3sb5lxzN4H-69" value="&lt;font style=&quot;font-size: 14px;&quot;&gt;&lt;b&gt;Val: 2&lt;/b&gt;&lt;/font&gt;" style="rounded=0;whiteSpace=wrap;html=1;" vertex="1" parent="1">
          <mxGeometry x="650" y="850" width="120" height="60" as="geometry" />
        </mxCell>
        <mxCell id="km2fHNfgsr3sb5lxzN4H-70" value="&lt;b&gt;&lt;font style=&quot;font-size: 14px;&quot;&gt;ID: 2&lt;/font&gt;&lt;/b&gt;" style="rounded=0;whiteSpace=wrap;html=1;fillColor=#dae8fc;strokeColor=#6c8ebf;" vertex="1" parent="1">
          <mxGeometry x="930" y="790" width="120" height="60" as="geometry" />
        </mxCell>
        <mxCell id="km2fHNfgsr3sb5lxzN4H-71" value="&lt;font style=&quot;font-size: 14px;&quot;&gt;&lt;b&gt;Val: 3&lt;/b&gt;&lt;/font&gt;" style="rounded=0;whiteSpace=wrap;html=1;" vertex="1" parent="1">
          <mxGeometry x="930" y="850" width="120" height="60" as="geometry" />
        </mxCell>
        <mxCell id="km2fHNfgsr3sb5lxzN4H-72" value="&lt;b&gt;&lt;font style=&quot;font-size: 14px;&quot;&gt;ID: 4&lt;/font&gt;&lt;/b&gt;" style="rounded=0;whiteSpace=wrap;html=1;fillColor=#dae8fc;strokeColor=#6c8ebf;" vertex="1" parent="1">
          <mxGeometry x="530" y="1095" width="120" height="60" as="geometry" />
        </mxCell>
        <mxCell id="km2fHNfgsr3sb5lxzN4H-73" value="&lt;font style=&quot;font-size: 14px;&quot;&gt;&lt;b&gt;Val: 3&lt;/b&gt;&lt;/font&gt;" style="rounded=0;whiteSpace=wrap;html=1;" vertex="1" parent="1">
          <mxGeometry x="530" y="1155" width="120" height="60" as="geometry" />
        </mxCell>
        <mxCell id="km2fHNfgsr3sb5lxzN4H-74" value="&lt;b&gt;&lt;font style=&quot;font-size: 14px;&quot;&gt;ID: 5&lt;/font&gt;&lt;/b&gt;" style="rounded=0;whiteSpace=wrap;html=1;fillColor=#dae8fc;strokeColor=#6c8ebf;" vertex="1" parent="1">
          <mxGeometry x="810" y="1095" width="120" height="60" as="geometry" />
        </mxCell>
        <mxCell id="km2fHNfgsr3sb5lxzN4H-75" value="&lt;font style=&quot;font-size: 14px;&quot;&gt;&lt;b&gt;Val: 1&lt;/b&gt;&lt;/font&gt;" style="rounded=0;whiteSpace=wrap;html=1;" vertex="1" parent="1">
          <mxGeometry x="810" y="1155" width="120" height="60" as="geometry" />
        </mxCell>
        <mxCell id="km2fHNfgsr3sb5lxzN4H-76" value="" style="group" vertex="1" connectable="0" parent="1">
          <mxGeometry x="240" y="160" width="960" height="520" as="geometry" />
        </mxCell>
        <mxCell id="km2fHNfgsr3sb5lxzN4H-8" value="" style="group;fillColor=#dae8fc;strokeColor=#6c8ebf;container=0;" vertex="1" connectable="0" parent="km2fHNfgsr3sb5lxzN4H-76">
          <mxGeometry x="120" width="120" height="120" as="geometry" />
        </mxCell>
        <mxCell id="km2fHNfgsr3sb5lxzN4H-31" value="" style="group" vertex="1" connectable="0" parent="km2fHNfgsr3sb5lxzN4H-76">
          <mxGeometry y="305" width="120" height="120" as="geometry" />
        </mxCell>
        <mxCell id="km2fHNfgsr3sb5lxzN4H-32" value="&lt;b&gt;&lt;font style=&quot;font-size: 14px;&quot;&gt;ID: 3&lt;/font&gt;&lt;/b&gt;" style="rounded=0;whiteSpace=wrap;html=1;fillColor=#dae8fc;strokeColor=#6c8ebf;" vertex="1" parent="km2fHNfgsr3sb5lxzN4H-31">
          <mxGeometry width="120" height="60" as="geometry" />
        </mxCell>
        <mxCell id="km2fHNfgsr3sb5lxzN4H-33" value="&lt;font style=&quot;font-size: 14px;&quot;&gt;&lt;b&gt;Val: 0&lt;br&gt;&lt;/b&gt;&lt;/font&gt;" style="rounded=0;whiteSpace=wrap;html=1;" vertex="1" parent="km2fHNfgsr3sb5lxzN4H-31">
          <mxGeometry y="60" width="120" height="60" as="geometry" />
        </mxCell>
        <mxCell id="km2fHNfgsr3sb5lxzN4H-34" value="" style="group;fillColor=#dae8fc;strokeColor=#6c8ebf;container=0;" vertex="1" connectable="0" parent="km2fHNfgsr3sb5lxzN4H-76">
          <mxGeometry x="280" y="305" width="120" height="120" as="geometry" />
        </mxCell>
        <mxCell id="km2fHNfgsr3sb5lxzN4H-40" value="" style="group;fillColor=#dae8fc;strokeColor=#6c8ebf;" vertex="1" connectable="0" parent="km2fHNfgsr3sb5lxzN4H-76">
          <mxGeometry x="840" y="305" width="120" height="120" as="geometry" />
        </mxCell>
        <mxCell id="km2fHNfgsr3sb5lxzN4H-41" value="&lt;b&gt;&lt;font style=&quot;font-size: 14px;&quot;&gt;ID: 6&lt;/font&gt;&lt;/b&gt;" style="rounded=0;whiteSpace=wrap;html=1;fillColor=#dae8fc;strokeColor=#6c8ebf;" vertex="1" parent="km2fHNfgsr3sb5lxzN4H-40">
          <mxGeometry width="120" height="60" as="geometry" />
        </mxCell>
        <mxCell id="km2fHNfgsr3sb5lxzN4H-42" value="&lt;font style=&quot;font-size: 14px;&quot;&gt;&lt;b&gt;Val: 2&lt;/b&gt;&lt;/font&gt;" style="rounded=0;whiteSpace=wrap;html=1;" vertex="1" parent="km2fHNfgsr3sb5lxzN4H-40">
          <mxGeometry y="60" width="120" height="60" as="geometry" />
        </mxCell>
        <mxCell id="km2fHNfgsr3sb5lxzN4H-44" value="" style="endArrow=classic;html=1;rounded=0;fontSize=14;exitX=0;exitY=1;exitDx=0;exitDy=0;strokeWidth=4;" edge="1" parent="km2fHNfgsr3sb5lxzN4H-76" source="km2fHNfgsr3sb5lxzN4H-27">
          <mxGeometry width="50" height="50" relative="1" as="geometry">
            <mxPoint x="275" y="130.0000000000001" as="sourcePoint" />
            <mxPoint x="70" y="300" as="targetPoint" />
          </mxGeometry>
        </mxCell>
        <mxCell id="km2fHNfgsr3sb5lxzN4H-45" value="" style="endArrow=classic;html=1;rounded=0;fontSize=14;exitX=0;exitY=1;exitDx=0;exitDy=0;strokeWidth=4;entryX=0.5;entryY=0;entryDx=0;entryDy=0;" edge="1" parent="km2fHNfgsr3sb5lxzN4H-76" target="km2fHNfgsr3sb5lxzN4H-38">
          <mxGeometry width="50" height="50" relative="1" as="geometry">
            <mxPoint x="680" y="120.00000000000011" as="sourcePoint" />
            <mxPoint x="350" y="300" as="targetPoint" />
          </mxGeometry>
        </mxCell>
        <mxCell id="km2fHNfgsr3sb5lxzN4H-47" value="" style="curved=1;endArrow=classic;html=1;rounded=0;strokeWidth=4;fontSize=14;exitX=0;exitY=1;exitDx=0;exitDy=0;entryX=0.5;entryY=1;entryDx=0;entryDy=0;" edge="1" parent="km2fHNfgsr3sb5lxzN4H-76" source="km2fHNfgsr3sb5lxzN4H-42" target="km2fHNfgsr3sb5lxzN4H-36">
          <mxGeometry width="50" height="50" relative="1" as="geometry">
            <mxPoint x="310" y="860" as="sourcePoint" />
            <mxPoint x="260" y="500" as="targetPoint" />
            <Array as="points">
              <mxPoint x="760" y="500" />
              <mxPoint x="460" y="520" />
            </Array>
          </mxGeometry>
        </mxCell>
        <mxCell id="km2fHNfgsr3sb5lxzN4H-48" value="" style="endArrow=classic;html=1;rounded=0;fontSize=14;exitX=0;exitY=0.5;exitDx=0;exitDy=0;strokeWidth=4;" edge="1" parent="km2fHNfgsr3sb5lxzN4H-76" source="km2fHNfgsr3sb5lxzN4H-38">
          <mxGeometry width="50" height="50" relative="1" as="geometry">
            <mxPoint x="470" y="425" as="sourcePoint" />
            <mxPoint x="400" y="335" as="targetPoint" />
          </mxGeometry>
        </mxCell>
        <mxCell id="km2fHNfgsr3sb5lxzN4H-49" value="" style="endArrow=classic;html=1;rounded=0;fontSize=14;exitX=1;exitY=0.5;exitDx=0;exitDy=0;strokeWidth=4;entryX=0;entryY=0.5;entryDx=0;entryDy=0;" edge="1" parent="km2fHNfgsr3sb5lxzN4H-76" source="km2fHNfgsr3sb5lxzN4H-38" target="km2fHNfgsr3sb5lxzN4H-41">
          <mxGeometry width="50" height="50" relative="1" as="geometry">
            <mxPoint x="850" y="250" as="sourcePoint" />
            <mxPoint x="690" y="250" as="targetPoint" />
          </mxGeometry>
        </mxCell>
        <mxCell id="km2fHNfgsr3sb5lxzN4H-3" value="&lt;b&gt;&lt;font style=&quot;font-size: 14px;&quot;&gt;ID: 0&lt;/font&gt;&lt;/b&gt;" style="rounded=0;whiteSpace=wrap;html=1;fillColor=#dae8fc;strokeColor=#6c8ebf;" vertex="1" parent="km2fHNfgsr3sb5lxzN4H-76">
          <mxGeometry x="120" width="120" height="60" as="geometry" />
        </mxCell>
        <mxCell id="km2fHNfgsr3sb5lxzN4H-4" value="&lt;font style=&quot;font-size: 14px;&quot;&gt;&lt;b&gt;Val: 4&lt;/b&gt;&lt;/font&gt;" style="rounded=0;whiteSpace=wrap;html=1;" vertex="1" parent="km2fHNfgsr3sb5lxzN4H-76">
          <mxGeometry x="120" y="60" width="120" height="60" as="geometry" />
        </mxCell>
        <mxCell id="km2fHNfgsr3sb5lxzN4H-26" value="&lt;b&gt;&lt;font style=&quot;font-size: 14px;&quot;&gt;ID: 1&lt;/font&gt;&lt;/b&gt;" style="rounded=0;whiteSpace=wrap;html=1;fillColor=#dae8fc;strokeColor=#6c8ebf;" vertex="1" parent="km2fHNfgsr3sb5lxzN4H-76">
          <mxGeometry x="400" width="120" height="60" as="geometry" />
        </mxCell>
        <mxCell id="km2fHNfgsr3sb5lxzN4H-27" value="&lt;font style=&quot;font-size: 14px;&quot;&gt;&lt;b&gt;Val: 2&lt;/b&gt;&lt;/font&gt;" style="rounded=0;whiteSpace=wrap;html=1;" vertex="1" parent="km2fHNfgsr3sb5lxzN4H-76">
          <mxGeometry x="400" y="60" width="120" height="60" as="geometry" />
        </mxCell>
        <mxCell id="km2fHNfgsr3sb5lxzN4H-29" value="&lt;b&gt;&lt;font style=&quot;font-size: 14px;&quot;&gt;ID: 2&lt;/font&gt;&lt;/b&gt;" style="rounded=0;whiteSpace=wrap;html=1;fillColor=#dae8fc;strokeColor=#6c8ebf;" vertex="1" parent="km2fHNfgsr3sb5lxzN4H-76">
          <mxGeometry x="680" width="120" height="60" as="geometry" />
        </mxCell>
        <mxCell id="km2fHNfgsr3sb5lxzN4H-30" value="&lt;font style=&quot;font-size: 14px;&quot;&gt;&lt;b&gt;Val: 3&lt;/b&gt;&lt;/font&gt;" style="rounded=0;whiteSpace=wrap;html=1;" vertex="1" parent="km2fHNfgsr3sb5lxzN4H-76">
          <mxGeometry x="680" y="60" width="120" height="60" as="geometry" />
        </mxCell>
        <mxCell id="km2fHNfgsr3sb5lxzN4H-35" value="&lt;b&gt;&lt;font style=&quot;font-size: 14px;&quot;&gt;ID: 4&lt;/font&gt;&lt;/b&gt;" style="rounded=0;whiteSpace=wrap;html=1;fillColor=#dae8fc;strokeColor=#6c8ebf;" vertex="1" parent="km2fHNfgsr3sb5lxzN4H-76">
          <mxGeometry x="280" y="305" width="120" height="60" as="geometry" />
        </mxCell>
        <mxCell id="km2fHNfgsr3sb5lxzN4H-43" value="" style="endArrow=classic;html=1;rounded=0;fontSize=14;exitX=1;exitY=1;exitDx=0;exitDy=0;entryX=0.5;entryY=0;entryDx=0;entryDy=0;strokeWidth=4;" edge="1" parent="km2fHNfgsr3sb5lxzN4H-76" source="km2fHNfgsr3sb5lxzN4H-4" target="km2fHNfgsr3sb5lxzN4H-35">
          <mxGeometry width="50" height="50" relative="1" as="geometry">
            <mxPoint x="590" y="200" as="sourcePoint" />
            <mxPoint x="640" y="150" as="targetPoint" />
          </mxGeometry>
        </mxCell>
        <mxCell id="km2fHNfgsr3sb5lxzN4H-46" value="" style="endArrow=classic;html=1;rounded=0;fontSize=14;exitX=1;exitY=0;exitDx=0;exitDy=0;strokeWidth=4;entryX=0.5;entryY=1;entryDx=0;entryDy=0;" edge="1" parent="km2fHNfgsr3sb5lxzN4H-76" source="km2fHNfgsr3sb5lxzN4H-35" target="km2fHNfgsr3sb5lxzN4H-27">
          <mxGeometry width="50" height="50" relative="1" as="geometry">
            <mxPoint x="660" y="-139.9999999999999" as="sourcePoint" />
            <mxPoint x="600" y="45" as="targetPoint" />
          </mxGeometry>
        </mxCell>
        <mxCell id="km2fHNfgsr3sb5lxzN4H-36" value="&lt;font style=&quot;font-size: 14px;&quot;&gt;&lt;b&gt;Val: 3&lt;/b&gt;&lt;/font&gt;" style="rounded=0;whiteSpace=wrap;html=1;" vertex="1" parent="km2fHNfgsr3sb5lxzN4H-76">
          <mxGeometry x="280" y="365" width="120" height="60" as="geometry" />
        </mxCell>
        <mxCell id="km2fHNfgsr3sb5lxzN4H-38" value="&lt;b&gt;&lt;font style=&quot;font-size: 14px;&quot;&gt;ID: 5&lt;/font&gt;&lt;/b&gt;" style="rounded=0;whiteSpace=wrap;html=1;fillColor=#dae8fc;strokeColor=#6c8ebf;" vertex="1" parent="km2fHNfgsr3sb5lxzN4H-76">
          <mxGeometry x="560" y="305" width="120" height="60" as="geometry" />
        </mxCell>
        <mxCell id="km2fHNfgsr3sb5lxzN4H-39" value="&lt;font style=&quot;font-size: 14px;&quot;&gt;&lt;b&gt;Val: 1&lt;/b&gt;&lt;/font&gt;" style="rounded=0;whiteSpace=wrap;html=1;" vertex="1" parent="km2fHNfgsr3sb5lxzN4H-76">
          <mxGeometry x="560" y="365" width="120" height="60" as="geometry" />
        </mxCell>
        <mxCell id="km2fHNfgsr3sb5lxzN4H-77" value="" style="group" vertex="1" connectable="0" parent="1">
          <mxGeometry x="240" y="1445" width="960" height="520" as="geometry" />
        </mxCell>
        <mxCell id="km2fHNfgsr3sb5lxzN4H-78" value="" style="group;fillColor=#dae8fc;strokeColor=#6c8ebf;container=0;" vertex="1" connectable="0" parent="km2fHNfgsr3sb5lxzN4H-77">
          <mxGeometry x="120" width="120" height="120" as="geometry" />
        </mxCell>
        <mxCell id="km2fHNfgsr3sb5lxzN4H-79" value="" style="group" vertex="1" connectable="0" parent="km2fHNfgsr3sb5lxzN4H-77">
          <mxGeometry y="305" width="120" height="120" as="geometry" />
        </mxCell>
        <mxCell id="km2fHNfgsr3sb5lxzN4H-80" value="&lt;b&gt;&lt;font style=&quot;font-size: 14px;&quot;&gt;ID: 3&lt;/font&gt;&lt;/b&gt;" style="rounded=0;whiteSpace=wrap;html=1;fillColor=#dae8fc;strokeColor=#6c8ebf;" vertex="1" parent="km2fHNfgsr3sb5lxzN4H-79">
          <mxGeometry width="120" height="60" as="geometry" />
        </mxCell>
        <mxCell id="km2fHNfgsr3sb5lxzN4H-81" value="&lt;font style=&quot;font-size: 14px;&quot;&gt;&lt;b&gt;Val: 0&lt;br&gt;&lt;/b&gt;&lt;/font&gt;" style="rounded=0;whiteSpace=wrap;html=1;" vertex="1" parent="km2fHNfgsr3sb5lxzN4H-79">
          <mxGeometry y="60" width="120" height="60" as="geometry" />
        </mxCell>
        <mxCell id="km2fHNfgsr3sb5lxzN4H-82" value="" style="group;fillColor=#dae8fc;strokeColor=#6c8ebf;container=0;" vertex="1" connectable="0" parent="km2fHNfgsr3sb5lxzN4H-77">
          <mxGeometry x="280" y="305" width="120" height="120" as="geometry" />
        </mxCell>
        <mxCell id="km2fHNfgsr3sb5lxzN4H-83" value="" style="group;fillColor=#dae8fc;strokeColor=#6c8ebf;" vertex="1" connectable="0" parent="km2fHNfgsr3sb5lxzN4H-77">
          <mxGeometry x="840" y="305" width="120" height="120" as="geometry" />
        </mxCell>
        <mxCell id="km2fHNfgsr3sb5lxzN4H-84" value="&lt;b&gt;&lt;font style=&quot;font-size: 14px;&quot;&gt;ID: 6&lt;/font&gt;&lt;/b&gt;" style="rounded=0;whiteSpace=wrap;html=1;fillColor=#dae8fc;strokeColor=#6c8ebf;" vertex="1" parent="km2fHNfgsr3sb5lxzN4H-83">
          <mxGeometry width="120" height="60" as="geometry" />
        </mxCell>
        <mxCell id="km2fHNfgsr3sb5lxzN4H-85" value="&lt;font style=&quot;font-size: 14px;&quot;&gt;&lt;b&gt;Val: 2&lt;/b&gt;&lt;/font&gt;" style="rounded=0;whiteSpace=wrap;html=1;" vertex="1" parent="km2fHNfgsr3sb5lxzN4H-83">
          <mxGeometry y="60" width="120" height="60" as="geometry" />
        </mxCell>
        <mxCell id="km2fHNfgsr3sb5lxzN4H-86" value="" style="endArrow=classic;html=1;rounded=0;fontSize=14;exitX=0;exitY=1;exitDx=0;exitDy=0;strokeWidth=4;strokeColor=#00B800;" edge="1" parent="km2fHNfgsr3sb5lxzN4H-77" source="km2fHNfgsr3sb5lxzN4H-94">
          <mxGeometry width="50" height="50" relative="1" as="geometry">
            <mxPoint x="275" y="130.0000000000001" as="sourcePoint" />
            <mxPoint x="70" y="300" as="targetPoint" />
          </mxGeometry>
        </mxCell>
        <mxCell id="km2fHNfgsr3sb5lxzN4H-87" value="" style="endArrow=classic;html=1;rounded=0;fontSize=14;exitX=0;exitY=1;exitDx=0;exitDy=0;strokeWidth=4;entryX=0.5;entryY=0;entryDx=0;entryDy=0;" edge="1" parent="km2fHNfgsr3sb5lxzN4H-77" target="km2fHNfgsr3sb5lxzN4H-101">
          <mxGeometry width="50" height="50" relative="1" as="geometry">
            <mxPoint x="680" y="120.00000000000011" as="sourcePoint" />
            <mxPoint x="350" y="300" as="targetPoint" />
          </mxGeometry>
        </mxCell>
        <mxCell id="km2fHNfgsr3sb5lxzN4H-88" value="" style="curved=1;endArrow=classic;html=1;rounded=0;strokeWidth=4;fontSize=14;exitX=0;exitY=1;exitDx=0;exitDy=0;entryX=0.5;entryY=1;entryDx=0;entryDy=0;strokeColor=#00B800;" edge="1" parent="km2fHNfgsr3sb5lxzN4H-77" source="km2fHNfgsr3sb5lxzN4H-85" target="km2fHNfgsr3sb5lxzN4H-100">
          <mxGeometry width="50" height="50" relative="1" as="geometry">
            <mxPoint x="310" y="860" as="sourcePoint" />
            <mxPoint x="260" y="500" as="targetPoint" />
            <Array as="points">
              <mxPoint x="760" y="500" />
              <mxPoint x="460" y="520" />
            </Array>
          </mxGeometry>
        </mxCell>
        <mxCell id="km2fHNfgsr3sb5lxzN4H-89" value="" style="endArrow=classic;html=1;rounded=0;fontSize=14;exitX=0;exitY=0.5;exitDx=0;exitDy=0;strokeWidth=4;" edge="1" parent="km2fHNfgsr3sb5lxzN4H-77" source="km2fHNfgsr3sb5lxzN4H-101">
          <mxGeometry width="50" height="50" relative="1" as="geometry">
            <mxPoint x="470" y="425" as="sourcePoint" />
            <mxPoint x="400" y="335" as="targetPoint" />
          </mxGeometry>
        </mxCell>
        <mxCell id="km2fHNfgsr3sb5lxzN4H-90" value="" style="endArrow=classic;html=1;rounded=0;fontSize=14;exitX=1;exitY=0.5;exitDx=0;exitDy=0;strokeWidth=4;entryX=0;entryY=0.5;entryDx=0;entryDy=0;strokeColor=#00B800;" edge="1" parent="km2fHNfgsr3sb5lxzN4H-77" source="km2fHNfgsr3sb5lxzN4H-101" target="km2fHNfgsr3sb5lxzN4H-84">
          <mxGeometry width="50" height="50" relative="1" as="geometry">
            <mxPoint x="850" y="250" as="sourcePoint" />
            <mxPoint x="690" y="250" as="targetPoint" />
          </mxGeometry>
        </mxCell>
        <mxCell id="km2fHNfgsr3sb5lxzN4H-91" value="&lt;b&gt;&lt;font style=&quot;font-size: 14px;&quot;&gt;ID: 0&lt;/font&gt;&lt;/b&gt;" style="rounded=0;whiteSpace=wrap;html=1;fillColor=#dae8fc;strokeColor=#6c8ebf;" vertex="1" parent="km2fHNfgsr3sb5lxzN4H-77">
          <mxGeometry x="120" width="120" height="60" as="geometry" />
        </mxCell>
        <mxCell id="km2fHNfgsr3sb5lxzN4H-92" value="&lt;font style=&quot;font-size: 14px;&quot;&gt;&lt;b&gt;Val: 4&lt;/b&gt;&lt;/font&gt;" style="rounded=0;whiteSpace=wrap;html=1;" vertex="1" parent="km2fHNfgsr3sb5lxzN4H-77">
          <mxGeometry x="120" y="60" width="120" height="60" as="geometry" />
        </mxCell>
        <mxCell id="km2fHNfgsr3sb5lxzN4H-93" value="&lt;b&gt;&lt;font style=&quot;font-size: 14px;&quot;&gt;ID: 1&lt;/font&gt;&lt;/b&gt;" style="rounded=0;whiteSpace=wrap;html=1;fillColor=#dae8fc;strokeColor=#6c8ebf;" vertex="1" parent="km2fHNfgsr3sb5lxzN4H-77">
          <mxGeometry x="400" width="120" height="60" as="geometry" />
        </mxCell>
        <mxCell id="km2fHNfgsr3sb5lxzN4H-94" value="&lt;font style=&quot;font-size: 14px;&quot;&gt;&lt;b&gt;Val: 2&lt;/b&gt;&lt;/font&gt;" style="rounded=0;whiteSpace=wrap;html=1;" vertex="1" parent="km2fHNfgsr3sb5lxzN4H-77">
          <mxGeometry x="400" y="60" width="120" height="60" as="geometry" />
        </mxCell>
        <mxCell id="km2fHNfgsr3sb5lxzN4H-95" value="&lt;b&gt;&lt;font style=&quot;font-size: 14px;&quot;&gt;ID: 2&lt;/font&gt;&lt;/b&gt;" style="rounded=0;whiteSpace=wrap;html=1;fillColor=#dae8fc;strokeColor=#6c8ebf;" vertex="1" parent="km2fHNfgsr3sb5lxzN4H-77">
          <mxGeometry x="680" width="120" height="60" as="geometry" />
        </mxCell>
        <mxCell id="km2fHNfgsr3sb5lxzN4H-96" value="&lt;font style=&quot;font-size: 14px;&quot;&gt;&lt;b&gt;Val: 3&lt;/b&gt;&lt;/font&gt;" style="rounded=0;whiteSpace=wrap;html=1;" vertex="1" parent="km2fHNfgsr3sb5lxzN4H-77">
          <mxGeometry x="680" y="60" width="120" height="60" as="geometry" />
        </mxCell>
        <mxCell id="km2fHNfgsr3sb5lxzN4H-97" value="&lt;b&gt;&lt;font style=&quot;font-size: 14px;&quot;&gt;ID: 4&lt;/font&gt;&lt;/b&gt;" style="rounded=0;whiteSpace=wrap;html=1;fillColor=#dae8fc;strokeColor=#6c8ebf;" vertex="1" parent="km2fHNfgsr3sb5lxzN4H-77">
          <mxGeometry x="280" y="305" width="120" height="60" as="geometry" />
        </mxCell>
        <mxCell id="km2fHNfgsr3sb5lxzN4H-98" value="" style="endArrow=classic;html=1;rounded=0;fontSize=14;exitX=1;exitY=1;exitDx=0;exitDy=0;entryX=0.5;entryY=0;entryDx=0;entryDy=0;strokeWidth=4;" edge="1" parent="km2fHNfgsr3sb5lxzN4H-77" source="km2fHNfgsr3sb5lxzN4H-92" target="km2fHNfgsr3sb5lxzN4H-97">
          <mxGeometry width="50" height="50" relative="1" as="geometry">
            <mxPoint x="590" y="200" as="sourcePoint" />
            <mxPoint x="640" y="150" as="targetPoint" />
          </mxGeometry>
        </mxCell>
        <mxCell id="km2fHNfgsr3sb5lxzN4H-99" value="" style="endArrow=classic;html=1;rounded=0;fontSize=14;exitX=1;exitY=0;exitDx=0;exitDy=0;strokeWidth=4;entryX=0.5;entryY=1;entryDx=0;entryDy=0;strokeColor=#00B800;" edge="1" parent="km2fHNfgsr3sb5lxzN4H-77" source="km2fHNfgsr3sb5lxzN4H-97" target="km2fHNfgsr3sb5lxzN4H-94">
          <mxGeometry width="50" height="50" relative="1" as="geometry">
            <mxPoint x="660" y="-139.9999999999999" as="sourcePoint" />
            <mxPoint x="600" y="45" as="targetPoint" />
          </mxGeometry>
        </mxCell>
        <mxCell id="km2fHNfgsr3sb5lxzN4H-100" value="&lt;font style=&quot;font-size: 14px;&quot;&gt;&lt;b&gt;Val: 3&lt;/b&gt;&lt;/font&gt;" style="rounded=0;whiteSpace=wrap;html=1;" vertex="1" parent="km2fHNfgsr3sb5lxzN4H-77">
          <mxGeometry x="280" y="365" width="120" height="60" as="geometry" />
        </mxCell>
        <mxCell id="km2fHNfgsr3sb5lxzN4H-101" value="&lt;b&gt;&lt;font style=&quot;font-size: 14px;&quot;&gt;ID: 5&lt;/font&gt;&lt;/b&gt;" style="rounded=0;whiteSpace=wrap;html=1;fillColor=#dae8fc;strokeColor=#6c8ebf;" vertex="1" parent="km2fHNfgsr3sb5lxzN4H-77">
          <mxGeometry x="560" y="305" width="120" height="60" as="geometry" />
        </mxCell>
        <mxCell id="km2fHNfgsr3sb5lxzN4H-102" value="&lt;font style=&quot;font-size: 14px;&quot;&gt;&lt;b&gt;Val: 1&lt;/b&gt;&lt;/font&gt;" style="rounded=0;whiteSpace=wrap;html=1;" vertex="1" parent="km2fHNfgsr3sb5lxzN4H-77">
          <mxGeometry x="560" y="365" width="120" height="60" as="geometry" />
        </mxCell>
      </root>
    </mxGraphModel>
  </diagram>
</mxfile>
